<?xml version="1.0" encoding="utf-8"?>
<!-- Generator: Adobe Illustrator 23.0.0, SVG Export Plug-In . SVG Version: 6.00 Build 0)  -->
<svg version="1.1" id="Layer_1" xmlns="http://www.w3.org/2000/svg" xmlns:xlink="http://www.w3.org/1999/xlink" x="0px" y="0px"
	 viewBox="0 0 20 20" style="enable-background:new 0 0 20 20;" xml:space="preserve">
<g>
	<path d="M18.4,8.6l-7-7c-0.8-0.8-2-0.8-2.8,0l-7,7c-0.8,0.8-0.8,2,0,2.8l7,7c0.8,0.8,2,0.8,2.8,0l7-7C19.2,10.6,19.2,9.4,18.4,8.6z
		 M10,16c-0.6,0-1-0.4-1-1c0-0.6,0.4-1,1-1s1,0.4,1,1C11,15.6,10.6,16,10,16z M11,11c0,0.5-0.5,1-1,1s-1-0.5-1-1V5c0-0.5,0.5-1,1-1
		s1,0.5,1,1V11z"/>
</g>
</svg>
