<?xml version="1.0" encoding="UTF-8"?>
<svg width="24px" height="25px" viewBox="0 0 24 25" version="1.1" xmlns="http://www.w3.org/2000/svg" xmlns:xlink="http://www.w3.org/1999/xlink">
    <!-- Generator: sketchtool 61.2 (101010) - https://sketch.com -->
    <title>9257C048-90AB-453E-A93C-F46A57178626</title>
    <desc>Created with sketchtool.</desc>
    <defs>
        <path d="M12,2 C13.117,2 14.022,2.873 14.092,3.974 L14.092,3.974 L17.5,3.974 C18.327,3.974 19,4.647 19,5.474 L19,5.474 L19,20.474 C19,21.301 18.327,21.974 17.5,21.974 L17.5,21.974 L6.5,21.974 C5.673,21.974 5,21.301 5,20.474 L5,20.474 L5,5.474 C5,4.647 5.673,3.974 6.5,3.974 L6.5,3.974 L9.908,3.974 C9.978,2.873 10.883,2 12,2 Z M7.815,4.974 L6.5,4.974 C6.225,4.974 6,5.199 6,5.474 L6,5.474 L6,20.474 C6,20.749 6.225,20.974 6.5,20.974 L6.5,20.974 L17.5,20.974 C17.775,20.974 18,20.749 18,20.474 L18,20.474 L18,5.474 C18,5.199 17.775,4.974 17.5,4.974 L17.5,4.974 L16.185,4.974 L16.185,6.789 C16.185,7.066 15.961,7.289 15.685,7.289 L15.685,7.289 L8.315,7.289 C8.039,7.289 7.815,7.066 7.815,6.789 L7.815,6.789 L7.815,4.974 Z M12.5,14.974 C12.776,14.974 13,15.198 13,15.474 C13,15.75 12.776,15.974 12.5,15.974 L12.5,15.974 L8.5,15.974 C8.224,15.974 8,15.75 8,15.474 C8,15.198 8.224,14.974 8.5,14.974 L8.5,14.974 Z M15.5,12.974 C15.776,12.974 16,13.198 16,13.474 C16,13.75 15.776,13.974 15.5,13.974 L15.5,13.974 L8.5,13.974 C8.224,13.974 8,13.75 8,13.474 C8,13.198 8.224,12.974 8.5,12.974 L8.5,12.974 Z M15.5,10.974 C15.776,10.974 16,11.198 16,11.474 C16,11.75 15.776,11.974 15.5,11.974 L15.5,11.974 L8.5,11.974 C8.224,11.974 8,11.75 8,11.474 C8,11.198 8.224,10.974 8.5,10.974 L8.5,10.974 Z M15.5,8.974 C15.776,8.974 16,9.198 16,9.474 C16,9.75 15.776,9.974 15.5,9.974 L15.5,9.974 L8.5,9.974 C8.224,9.974 8,9.75 8,9.474 C8,9.198 8.224,8.974 8.5,8.974 L8.5,8.974 Z" id="path-1"></path>
    </defs>
    <g id="Home-Page" stroke="none" stroke-width="1" fill="none" fill-rule="evenodd">
        <g id="01-02-[Desktop]-Home-Page---Live-Active" transform="translate(-151.000000, -981.000000)">
            <g id="Liberty-Direct-Products" transform="translate(121.000000, 612.000000)">
                <g id="1" transform="translate(0.000000, 70.000000)">
                    <g id="component/button/link+icon/default-copy" transform="translate(30.000000, 299.000000)">
                        <g id="icon/clipboard/24" transform="translate(0.000000, 0.500000)">
                            <rect id="bounding_box" fill-rule="nonzero" x="0" y="0" width="24" height="24"></rect>
                            <mask id="mask-2" fill="white">
                                <use xlink:href="#path-1"></use>
                            </mask>
                            <use id="Mask" fill="#797979" xlink:href="#path-1"></use>
                            <g id="colour/white" mask="url(#mask-2)" fill="#FFFFFF">
                                <rect id="Rectangle" x="0" y="0" width="20" height="20"></rect>
                                <rect id="Rectangle-Copy" x="0" y="0" width="24" height="24"></rect>
                            </g>
                        </g>
                    </g>
                </g>
            </g>
        </g>
    </g>
</svg>