<svg xmlns="http://www.w3.org/2000/svg" xmlns:xlink="http://www.w3.org/1999/xlink" version="1.1" style="enable-background:new 0 0 20 20;" xml:space="preserve" width="20" height="20"><rect id="backgroundrect" width="100%" height="100%" x="0" y="0" fill="none" stroke="none"/>

<g class="currentLayer" style=""><title>Layer 1</title><g id="svg_1" class="" fill="#eb1a1a" fill-opacity="1">
	<path d="M18.4,8.6l-7-7c-0.8-0.8-2-0.8-2.8,0l-7,7c-0.8,0.8-0.8,2,0,2.8l7,7c0.8,0.8,2,0.8,2.8,0l7-7C19.2,10.6,19.2,9.4,18.4,8.6z    M10,16c-0.6,0-1-0.4-1-1c0-0.6,0.4-1,1-1s1,0.4,1,1C11,15.6,10.6,16,10,16z M11,11c0,0.5-0.5,1-1,1s-1-0.5-1-1V5c0-0.5,0.5-1,1-1   s1,0.5,1,1V11z" id="svg_2" fill="#eb1a1a" fill-opacity="1"/>
</g></g></svg>